<svg xmlns="http://www.w3.org/2000/svg" xmlns:xlink="http://www.w3.org/1999/xlink" xmlns:lucid="lucid" width="1525.71" height="246.49"><g transform="translate(-939 -5999.103131231274)" lucid:page-tab-id="0_0"><path d="M940 6000.1h1523.7v244.5H940z" stroke="#000" stroke-opacity="0" stroke-width="2" fill-opacity="0"/><path d="M960 6056.47a6 6 0 0 1 6-6h1184.77a6 6 0 0 1 6 6v158a6 6 0 0 1-6 6H966a6 6 0 0 1-6-6z" stroke="#000" stroke-opacity="0" stroke-width="2" fill-opacity="0"/><use xlink:href="#a" transform="matrix(1,0,0,1,965,6055.471015719926) translate(14.940000000000055 120.3125)"/><use xlink:href="#b" transform="matrix(1,0,0,1,965,6055.471015719926) translate(598.62 120.3125)"/><path d="M2323.56 6050.15a.8.8 0 0 0-.55 1.14l20.18 42.5a.8.8 0 0 0 1.22.3l92-70.3a.2.2 0 0 0-.18-.38z" stroke="#000" stroke-width="2" fill="#fc9432"/><path d="M2264.3 6058.28a1.2 1.2 0 0 1 .06-1.53l12.3-13.37a1.64 1.64 0 0 1 1.65-.47l17.52 4.87a1.2 1.2 0 0 1 .88 1.27l-1.48 16.17a1.46 1.46 0 0 1-1.05 1.3l-18.53 5.27a1.46 1.46 0 0 1-1.57-.52z" stroke="#000" stroke-width="2"/><path d="M2190.72 6049.17a.14.14 0 0 0 .12.25l113.93-32.5a.14.14 0 0 0-.04-.27l-60.65-.03a3.5 3.5 0 0 0-1.85.53zM2349.74 6111.74a.12.12 0 0 0-.1-.22l-130.48 37.2a.12.12 0 0 0 .04.25l68.92-2.26a4 4 0 0 0 1.87-.53z" stroke="#000" stroke-width="2" fill-opacity="0"/><path d="M2200.3 6082.98a.62.62 0 0 0-.7.78l18.32 64.28a1 1 0 0 0 1.24.7l130.48-37.23a.24.24 0 0 0-.02-.44zM2288.36 6021.94a.16.16 0 0 0-.14-.3l-97.38 27.78a1 1 0 0 0-.7 1.24l8.9 31.18a.72.72 0 0 0 1.1.4z" stroke="#000" stroke-width="2" fill-opacity="0"/><path d="M2236.47 6214.42a.2.2 0 0 0 .34-.17l-46.65-163.6a.2.2 0 0 0-.38.04l-9.3 90.2a2.5 2.5 0 0 0 .52 1.8z" stroke="#000" stroke-width="2" fill-opacity="0"/><path d="M2350.06 6109.75l-60.3-87.55" stroke="#000" stroke-width="2" fill="none"/><path d="M2353.14 6112.5l-1.6 1.1-1-1.45.03-.03.3-.82-.23-.7-.5-.46-.54-.1 1.25-.86z" stroke="#000" stroke-width=".05"/><path d="M2289.76 6022.22l-.58-.85M2350.2 6109.68l-44.04-92.12" stroke="#000" stroke-width="2" fill="none"/><path d="M2352.8 6112.86l-1.76.85-.7-1.44.23-.14.3-.82-.23-.7-.5-.46-.7-.13 1.63-.77z" stroke="#000" stroke-width=".05"/><path d="M2306.18 6017.58l-.45-.93M2184.28 6242.13l43.5-201.28M2184.28 6242.1l-.2 1" stroke="#000" stroke-width="2" fill="none"/><path d="M2228.72 6041.08l-1.9-.4.1-.5 2.12-.6z" stroke="#000" stroke-width=".05"/><path d="M2239.52 6243.6l-11.48-202.73M2239.52 6243.57l.06 1.02" stroke="#000" stroke-width="2" fill="none"/><path d="M2229 6040.84l-1.94.1-.04-.8 1.92-.54z" stroke="#000" stroke-width=".05"/><path d="M2237.37 6213.7l-32.05-66.03" stroke="#000" stroke-width="2" fill="none"/><path d="M2240 6216.88l-1.76.85-1.13-2.32h.15l.55-.7v-.6l-.16-.56.6-.28z" stroke="#000" stroke-width=".05"/><path d="M2205.33 6147.7l-.45-.93M2207.35 6243.16l28.14-27.05M2207.37 6243.14l-.74.7" stroke="#000" stroke-width="2" fill="none"/><path d="M2239.05 6214.04l-2.9 2.8-1.35-1.4.68-.67.32.43.64.34.8-.15.57-.7v-.6l-.35-1.23.25-.23z" stroke="#000" stroke-width=".05"/><path d="M2323.56 6050.15a.8.8 0 0 0-.55 1.14l20.18 42.5a.8.8 0 0 0 1.22.3l92-70.3a.2.2 0 0 0-.18-.38z" stroke="#000" stroke-width="2" fill="#fc9432"/><path d="M2264.3 6058.28a1.2 1.2 0 0 1 .06-1.53l12.3-13.37a1.64 1.64 0 0 1 1.65-.47l17.52 4.87a1.2 1.2 0 0 1 .88 1.27l-1.48 16.17a1.46 1.46 0 0 1-1.05 1.3l-18.53 5.27a1.46 1.46 0 0 1-1.57-.52z" stroke="#000" stroke-width="2"/><path d="M2190.72 6049.17a.14.14 0 0 0 .12.25l113.93-32.5a.14.14 0 0 0-.04-.27l-60.65-.03a3.5 3.5 0 0 0-1.85.53zM2349.74 6111.74a.12.12 0 0 0-.1-.22l-130.48 37.2a.12.12 0 0 0 .04.25l68.92-2.26a4 4 0 0 0 1.87-.53z" stroke="#000" stroke-width="2" fill-opacity="0"/><path d="M2200.3 6082.98a.62.62 0 0 0-.7.78l18.32 64.28a1 1 0 0 0 1.24.7l130.48-37.23a.24.24 0 0 0-.02-.44zM2288.36 6021.94a.16.16 0 0 0-.14-.3l-97.38 27.78a1 1 0 0 0-.7 1.24l8.9 31.18a.72.72 0 0 0 1.1.4z" stroke="#000" stroke-width="2" fill-opacity="0"/><path d="M2236.47 6214.42a.2.2 0 0 0 .34-.17l-46.65-163.6a.2.2 0 0 0-.38.04l-9.3 90.2a2.5 2.5 0 0 0 .52 1.8z" stroke="#000" stroke-width="2" fill-opacity="0"/><path d="M2350.06 6109.75l-60.3-87.55" stroke="#000" stroke-width="2" fill="none"/><path d="M2353.14 6112.5l-1.6 1.1-1-1.45.03-.03.3-.82-.23-.7-.5-.46-.54-.1 1.25-.86z" stroke="#000" stroke-width=".05"/><path d="M2289.76 6022.22l-.58-.85M2350.2 6109.68l-44.04-92.12" stroke="#000" stroke-width="2" fill="none"/><path d="M2352.8 6112.86l-1.76.85-.7-1.44.23-.14.3-.82-.23-.7-.5-.46-.7-.13 1.63-.77z" stroke="#000" stroke-width=".05"/><path d="M2306.18 6017.58l-.45-.93M2184.28 6242.13l43.5-201.28M2184.28 6242.1l-.2 1" stroke="#000" stroke-width="2" fill="none"/><path d="M2228.72 6041.08l-1.9-.4.1-.5 2.12-.6z" stroke="#000" stroke-width=".05"/><path d="M2239.52 6243.6l-11.48-202.73M2239.52 6243.57l.06 1.02" stroke="#000" stroke-width="2" fill="none"/><path d="M2229 6040.84l-1.94.1-.04-.8 1.92-.54z" stroke="#000" stroke-width=".05"/><path d="M2237.37 6213.7l-32.05-66.03" stroke="#000" stroke-width="2" fill="none"/><path d="M2240 6216.88l-1.76.85-1.13-2.32h.15l.55-.7v-.6l-.16-.56.6-.28z" stroke="#000" stroke-width=".05"/><path d="M2205.33 6147.7l-.45-.93M2207.35 6243.16l28.14-27.05M2207.37 6243.14l-.74.7" stroke="#000" stroke-width="2" fill="none"/><path d="M2239.05 6214.04l-2.9 2.8-1.35-1.4.68-.67.32.43.64.34.8-.15.57-.7v-.6l-.35-1.23.25-.23z" stroke="#000" stroke-width=".05"/><defs><path d="M774-612H186c-12 0-22 10-22 22v460c0 12 10 22 22 22h588V0H186C114 0 56-58 56-130v-460c0-72 58-130 130-130h588v108" id="c"/><path d="M632-578v678c0 72-58 130-130 130H144V122h358c12 0 22-10 22-22V0H172C100 0 42-58 42-130v-448h108v448c0 12 10 22 22 22h330c12 0 22-10 22-22v-448h108" id="d"/><path d="M514-580c72 0 130 58 130 130v320C644-58 586 0 514 0H54v-770h108v190h352zm22 450v-320c0-12-10-22-22-22H184c-12 0-22 10-22 22v320c0 12 10 22 22 22h330c12 0 22-10 22-22" id="e"/><path d="M511-580c72 0 130 58 130 130v214H159v106c0 12 10 22 22 22h460V0H181C109 0 51-58 51-130v-320c0-72 58-130 130-130h330zM159-344h374v-106c0-12-10-22-22-22H181c-12 0-22 10-22 22v106" id="f"/><path d="M182-580h324v108H182c-12 0-22 10-22 22V0H52v-450c0-72 58-130 130-130" id="g"/><g id="a"><use transform="matrix(0.16,0,0,0.16,0,0)" xlink:href="#c"/><use transform="matrix(0.16,0,0,0.16,131.52,0)" xlink:href="#d"/><use transform="matrix(0.16,0,0,0.16,241.12,0)" xlink:href="#e"/><use transform="matrix(0.16,0,0,0.16,347.84000000000003,0)" xlink:href="#f"/><use transform="matrix(0.16,0,0,0.16,455.36,0)" xlink:href="#g"/></g><path d="M772-108h92V0H184C112 0 54-58 54-130v-460c0-72 58-130 130-130h460c72 0 130 58 130 130-1 160 3 325-2 482zm-588 0h460c12 0 22-10 22-22v-460c0-12-10-22-22-22H184c-12 0-22 10-22 22v460c0 12 10 22 22 22" id="h"/><path d="M535-580h108v450C643-58 585 0 513 0H183C111 0 53-58 53-130v-450h108v450c0 12 10 22 22 22h330c12 0 22-10 22-22v-450" id="i"/><path d="M512-580c72 0 130 58 130 130V0H182C110 0 52-58 52-130v-214h482v-106c0-12-10-22-22-22H52v-108h460zm22 472v-128H160v106c0 12 10 22 22 22h352" id="j"/><path d="M181-108h460V0H181C109 0 51-58 51-130v-320c0-72 58-130 130-130h458v108H181c-12 0-22 10-22 22v320c0 12 10 22 22 22" id="k"/><path d="M509-580h128v15L388-290 637-15V0H509L292-236H162V0H54v-770h108v426h130" id="l"/><g id="b"><use transform="matrix(0.16,0,0,0.16,0,0)" xlink:href="#h"/><use transform="matrix(0.16,0,0,0.16,141.44,0)" xlink:href="#i"/><use transform="matrix(0.16,0,0,0.16,252.63999999999996,0)" xlink:href="#j"/><use transform="matrix(0.16,0,0,0.16,361.28000000000003,0)" xlink:href="#k"/><use transform="matrix(0.16,0,0,0.16,470.08,0)" xlink:href="#l"/></g></defs></g></svg>